<svg width="20" height="20" viewBox="0 0 20 20" fill="none" xmlns="http://www.w3.org/2000/svg">
<path d="M0 19.9999L1.41477 14.8645C0.542385 13.3582 0.0834674 11.65 0.0840914 9.91136C0.0840914 4.44605 4.55606 0 10.042 0C12.7083 0 15.2065 1.03397 17.0863 2.90491C18.966 4.77594 20 7.26735 20 9.91626C20 15.3815 15.528 19.8275 10.042 19.8275H10.0371C8.36998 19.8275 6.73258 19.409 5.27822 18.6213L0 20V19.9999Z" fill="url(#paint0_linear)"/>
<path d="M0 19.9999L1.41318 14.8657C0.544269 13.3634 0.0810773 11.6567 0.0859153 9.91204C0.0859153 4.44498 4.55476 0 10.0454 0C12.7095 0 15.2112 1.03155 17.0876 2.90463C18.9687 4.7777 20.0047 7.26879 20 9.91678C20 15.3838 15.5311 19.8288 10.0405 19.8288H10.0358C8.37277 19.8282 6.73633 19.413 5.2757 18.6213L0 20V19.9999ZM5.52393 16.8243L5.82472 17.0049C7.09476 17.7561 8.5509 18.1507 10.0358 18.1554H10.0406C14.6001 18.1554 18.3146 14.4616 18.3146 9.91678C18.3146 7.71572 17.4552 5.64771 15.894 4.08842C14.3327 2.52913 12.2511 1.67341 10.0406 1.67341C5.47622 1.67341 1.76176 5.36723 1.76176 9.91204C1.76176 11.4666 2.19618 12.9831 3.02697 14.2951L3.22274 14.6089L2.38719 17.6467L5.52393 16.8243Z" fill="white"/>
<path d="M7.53681 5.43264C7.35286 5.01902 7.15952 5.00947 6.98513 5.00473C6.84369 5 6.67869 5 6.5136 5C6.3486 5 6.0845 5.06179 5.85821 5.30897C5.63183 5.55622 5 6.15522 5 7.37706C5 8.59399 5.88177 9.77297 6.00434 9.93933C6.12692 10.1058 7.70651 12.6871 10.2008 13.6807C12.2755 14.508 12.6999 14.3415 13.1478 14.2988C13.6004 14.256 14.6001 13.6998 14.8075 13.1198C15.0102 12.5398 15.0102 12.0454 14.949 11.9408C14.8877 11.8362 14.7227 11.7744 14.4774 11.6508C14.2323 11.5272 13.0252 10.9282 12.7989 10.8426C12.5725 10.7571 12.4075 10.7191 12.2472 10.9662C12.0821 11.2134 11.6107 11.7696 11.4692 11.9361C11.3277 12.1024 11.1816 12.1215 10.9364 11.9979C10.6912 11.8743 9.89906 11.6127 8.96079 10.7666C8.22993 10.1105 7.73485 9.29755 7.59332 9.05038C7.45188 8.80321 7.57923 8.66999 7.70181 8.54648C7.81022 8.4371 7.94697 8.25645 8.06963 8.11384C8.1922 7.97124 8.23463 7.86667 8.31478 7.70023C8.39493 7.53387 8.35721 7.39126 8.29592 7.26767C8.23463 7.144 7.75371 5.92225 7.53681 5.43264Z" fill="white"/>
<defs>
<linearGradient id="paint0_linear" x1="9.9996" y1="19.9986" x2="9.9996" y2="-0.00120043" gradientUnits="userSpaceOnUse">
<stop stop-color="#20B038"/>
<stop offset="1" stop-color="#60D66A"/>
</linearGradient>
</defs>
</svg>
