<svg width="150" height="120" viewBox="0 0 150 120" fill="none" xmlns="http://www.w3.org/2000/svg">
<path fill-rule="evenodd" clip-rule="evenodd" d="M148.089 1.90476H1.91083V118.095H148.089V1.90476ZM0 0V120H150V0H0Z" fill="black"/>
<path d="M24.247 57.3287C23.1158 57.3287 22.5502 57.1147 22.5502 56.6866C22.5502 55.4025 22.5961 53.4611 22.6878 50.8624L22.7795 45.0841C22.7795 42.944 22.7337 39.749 22.6419 35.4994C22.5196 31.7389 22.4585 28.5592 22.4585 25.9605C22.4585 23.7592 22.8559 22.6586 23.6509 22.6586C25.6993 22.6586 27.2738 23.3159 28.3744 24.6306C29.5056 25.9452 30.0712 27.6879 30.0712 29.8586C30.0712 32.3045 29.0929 34.842 27.1362 37.4713C28.7566 39.0917 29.8878 40.6357 30.5298 42.1032C31.2024 43.5707 31.5388 45.3287 31.5388 47.3771C31.5388 48.6306 31.4929 49.6395 31.4012 50.4038C31.34 51.1376 31.2024 51.8255 30.9884 52.4675C30.7744 53.1401 30.4687 53.721 30.0712 54.2102C29.7044 54.6994 29.1999 55.158 28.5579 55.586C27.9464 56.014 27.1515 56.442 26.1731 56.8701C25.8063 56.9618 25.5005 57.0382 25.2559 57.0994C24.8585 57.2522 24.5528 57.3287 24.3388 57.3287H24.247ZM24.2012 37.242C24.8738 37.242 25.5158 36.9516 26.1273 36.3707C26.7388 35.7898 27.2432 35.0255 27.6407 34.0777C28.0381 33.1911 28.3438 32.2739 28.5579 31.3261C28.7719 30.3478 28.8789 29.4611 28.8789 28.6662C28.8789 27.5962 28.4814 26.5873 27.6865 25.6395C26.9222 24.6917 26.0509 24.2178 25.0725 24.2178C24.2776 24.2178 23.8802 24.8752 23.8802 26.1898C23.8802 28.2382 23.9107 30.0726 23.9719 31.693L24.0636 37.1962L24.2012 37.242ZM24.568 55.5401C25.6075 55.5401 26.5553 55.2344 27.4114 54.6229C28.298 53.9809 28.9859 53.1401 29.4751 52.1006C29.9948 51.0611 30.2547 49.9452 30.2547 48.7529C30.2547 43.2803 28.94 39.9936 26.3107 38.893C26.0661 38.893 25.6687 38.9694 25.1184 39.1223C24.5986 39.3057 24.247 39.3975 24.0636 39.3975C24.2165 44.3809 24.2929 49.7465 24.2929 55.4943H24.4305L24.568 55.5401Z" fill="black"/>
<path d="M47.0974 57.0535C46.8528 57.0535 46.6388 56.9771 46.4554 56.8242C46.3025 56.6713 46.2261 56.4879 46.2261 56.2739V50.2662C46.2261 49.8994 45.4465 49.5631 43.8872 49.2573C42.328 48.9516 41.0439 48.7987 40.035 48.7987C39.9739 48.7987 39.8669 49.028 39.714 49.4866C39.5917 49.9452 39.5 50.2815 39.4388 50.4955C39.0414 52.0854 38.6439 53.7822 38.2465 55.586L38.0172 56.5949C37.956 56.8395 37.8032 56.9618 37.5586 56.9618C37.314 56.9618 37.0847 56.8854 36.8707 56.7325C36.6872 56.5796 36.5955 56.3962 36.5955 56.1822L36.6414 56.0904V56.0446L37.1458 53.7516C37.5127 52.3147 37.8337 50.9083 38.1089 49.5325C38.4146 47.9732 38.6439 46.9643 38.7968 46.5057C39.0414 45.4968 39.5306 42.9745 40.2643 38.9389L40.5395 37.4255C41.3344 32.7172 41.8847 29.7516 42.1904 28.5287C42.3433 27.7949 42.6185 26.7096 43.0159 25.2726C43.1688 24.6611 43.3828 24.0497 43.6579 23.4382C43.9331 22.9185 44.1624 22.6586 44.3458 22.6586C44.835 22.6586 45.1866 22.8115 45.4006 23.1172C45.5535 23.3924 45.7828 24.9057 46.0885 27.6573C46.4248 30.4089 46.7153 33.1911 46.9599 36.0038L47.556 43.6166C47.556 44.9312 47.6477 46.9185 47.8312 49.5783C48.0146 52.2688 48.1063 54.2713 48.1063 55.586V55.7694C48.1063 56.1057 48.0605 56.4115 47.9688 56.6866C47.8465 56.9312 47.556 57.0535 47.0974 57.0535ZM45.263 48.2025C45.8745 48.2025 46.1802 48.0497 46.1802 47.7439C46.1802 45.8484 46.0732 43.265 45.8592 39.9936C45.6452 36.6917 45.4159 33.7873 45.1713 31.2803C45.1102 30.2102 44.9879 29.0331 44.8044 27.749L44.621 25.9605C44.621 25.9911 44.5904 25.8229 44.5293 25.4561L44.4376 24.9057C44.193 25.5783 43.9484 26.5108 43.7038 27.7032C43.4898 28.8955 43.2605 30.3019 43.0159 31.9223C42.2821 36.4777 41.6554 39.9019 41.1356 42.1949L40.7229 43.7541C40.2643 45.2828 40.035 46.4446 40.035 47.2395V47.5147C41.3802 47.9427 42.9242 48.1567 44.6669 48.1567H44.942C45.0337 48.1873 45.1407 48.2025 45.263 48.2025ZM45.3089 20.3197C45.0949 20.3197 44.8962 20.2586 44.7127 20.1363C44.5599 20.014 44.4834 19.8611 44.4834 19.6777C44.4834 19.586 44.9114 19.1885 45.7675 18.4854L47.235 17.293L48.4732 16.3299C49.5127 15.535 50.0783 15.0917 50.17 15C50.8427 15 51.179 15.2293 51.179 15.6879L51.0414 16.4217C49.4516 17.1554 47.5407 18.4548 45.3089 20.3197Z" fill="black"/>
<path d="M63.54 57.5121C62.9285 57.5121 62.5464 57.2064 62.3935 56.5949L61.8432 54.5771C60.9871 51.7338 60.3604 49.3338 59.9629 47.3771C59.7183 46.307 59.4126 44.8242 59.0457 42.9287C58.6177 40.7274 58.2202 38.9389 57.8534 37.5631L57.3948 37.8382L56.7986 38.1134L56.8903 55.7694V56.4573C56.8903 57.0688 56.6151 57.3745 56.0648 57.3745C55.8202 57.3745 55.6215 57.2981 55.4686 57.1452C55.3158 56.9924 55.2393 56.8089 55.2393 56.5949V55.907L55.3311 46.6433L55.4228 42.1949C55.5451 36.8446 55.6062 32.2892 55.6062 28.5287V22.6127C55.6062 22.3376 55.8814 22.2 56.4317 22.2C57.2266 22.2 57.9604 22.414 58.633 22.842C59.3362 23.2701 59.8865 23.851 60.2839 24.5847C61.1094 26.0828 61.5221 27.7185 61.5221 29.4917C61.5221 30.8981 61.2164 32.4268 60.6049 34.0777C60.4215 34.5363 60.1922 35.0713 59.9171 35.6828C59.6419 36.2637 59.3973 36.6611 59.1833 36.8752C59.8253 39.2293 60.7578 42.8522 61.9808 47.7439L64.1362 55.9987C64.1667 56.0904 64.182 56.2586 64.182 56.5032C64.182 56.7783 64.1209 57.0076 63.9986 57.1911C63.9069 57.4051 63.754 57.5121 63.54 57.5121ZM56.7527 36.6C56.9973 36.6 57.41 36.3096 57.9909 35.7287C58.5718 35.1478 58.9846 34.6586 59.2292 34.2611C59.4432 33.8331 59.6266 33.1911 59.7795 32.335C59.9323 31.479 60.0088 30.7146 60.0088 30.042C60.0088 28.7885 59.7948 27.5045 59.3667 26.1898C59.1527 25.4255 58.8317 24.814 58.4037 24.3554C57.9757 23.8662 57.5018 23.6217 56.982 23.6217H56.8903C56.8597 23.6522 56.8139 23.6675 56.7527 23.6675V36.6Z" fill="black"/>
<path d="M71.6206 57.3287C70.4894 57.3287 69.9238 57.1147 69.9238 56.6866C69.9238 55.4025 69.9697 53.4611 70.0614 50.8624L70.1531 45.0841C70.1531 42.944 70.1073 39.749 70.0155 35.4994C69.8932 31.7389 69.8321 28.5592 69.8321 25.9605C69.8321 23.7592 70.2295 22.6586 71.0245 22.6586C73.0729 22.6586 74.6474 23.3159 75.748 24.6306C76.8792 25.9452 77.4448 27.6879 77.4448 29.8586C77.4448 32.3045 76.4665 34.842 74.5098 37.4713C76.1302 39.0917 77.2614 40.6357 77.9034 42.1032C78.576 43.5707 78.9124 45.3287 78.9124 47.3771C78.9124 48.6306 78.8665 49.6395 78.7748 50.4038C78.7136 51.1376 78.576 51.8255 78.362 52.4675C78.148 53.1401 77.8423 53.721 77.4448 54.2102C77.078 54.6994 76.5735 55.158 75.9315 55.586C75.32 56.014 74.5251 56.442 73.5467 56.8701C73.1799 56.9618 72.8741 57.0382 72.6296 57.0994C72.2321 57.2522 71.9264 57.3287 71.7124 57.3287H71.6206ZM71.5748 37.242C72.2474 37.242 72.8894 36.9516 73.5009 36.3707C74.1124 35.7898 74.6168 35.0255 75.0143 34.0777C75.4117 33.1911 75.7174 32.2739 75.9315 31.3261C76.1455 30.3478 76.2525 29.4611 76.2525 28.6662C76.2525 27.5962 75.855 26.5873 75.0601 25.6395C74.2958 24.6917 73.4245 24.2178 72.4461 24.2178C71.6512 24.2178 71.2538 24.8752 71.2538 26.1898C71.2538 28.2382 71.2843 30.0726 71.3455 31.693L71.4372 37.1962L71.5748 37.242ZM71.9417 55.5401C72.9811 55.5401 73.9289 55.2344 74.785 54.6229C75.6716 53.9809 76.3595 53.1401 76.8487 52.1006C77.3684 51.0611 77.6283 49.9452 77.6283 48.7529C77.6283 43.2803 76.3136 39.9936 73.6843 38.893C73.4397 38.893 73.0423 38.9694 72.492 39.1223C71.9722 39.3057 71.6206 39.3975 71.4372 39.3975C71.5901 44.3809 71.6665 49.7465 71.6665 55.4943H71.8041L71.9417 55.5401Z" fill="black"/>
<path d="M94.471 57.0535C94.2265 57.0535 94.0124 56.9771 93.829 56.8242C93.6761 56.6713 93.5997 56.4879 93.5997 56.2739V50.2662C93.5997 49.8994 92.8201 49.5631 91.2608 49.2573C89.7016 48.9516 88.4175 48.7987 87.4086 48.7987C87.3475 48.7987 87.2405 49.028 87.0876 49.4866C86.9653 49.9452 86.8736 50.2815 86.8124 50.4955C86.415 52.0854 86.0175 53.7822 85.6201 55.586L85.3908 56.5949C85.3296 56.8395 85.1768 56.9618 84.9322 56.9618C84.6876 56.9618 84.4583 56.8854 84.2443 56.7325C84.0608 56.5796 83.9691 56.3962 83.9691 56.1822L84.015 56.0904V56.0446L84.5194 53.7516C84.8863 52.3147 85.2073 50.9083 85.4825 49.5325C85.7882 47.9732 86.0175 46.9643 86.1704 46.5057C86.415 45.4968 86.9042 42.9745 87.6379 38.9389L87.9131 37.4255C88.708 32.7172 89.2583 29.7516 89.564 28.5287C89.7169 27.7949 89.9921 26.7096 90.3895 25.2726C90.5424 24.6611 90.7564 24.0497 91.0315 23.4382C91.3067 22.9185 91.536 22.6586 91.7195 22.6586C92.2086 22.6586 92.5602 22.8115 92.7742 23.1172C92.9271 23.3924 93.1564 24.9057 93.4621 27.6573C93.7984 30.4089 94.0889 33.1911 94.3335 36.0038L94.9296 43.6166C94.9296 44.9312 95.0214 46.9185 95.2048 49.5783C95.3882 52.2688 95.48 54.2713 95.48 55.586V55.7694C95.48 56.1057 95.4341 56.4115 95.3424 56.6866C95.2201 56.9312 94.9296 57.0535 94.471 57.0535ZM92.6367 48.2025C93.2481 48.2025 93.5538 48.0497 93.5538 47.7439C93.5538 45.8484 93.4468 43.265 93.2328 39.9936C93.0188 36.6917 92.7895 33.7873 92.5449 31.2803C92.4838 30.2102 92.3615 29.0331 92.178 27.749L91.9946 25.9605C91.9946 25.9911 91.964 25.8229 91.9029 25.4561L91.8112 24.9057C91.5666 25.5783 91.322 26.5108 91.0774 27.7032C90.8634 28.8955 90.6341 30.3019 90.3895 31.9223C89.6558 36.4777 89.029 39.9019 88.5093 42.1949L88.0965 43.7541C87.6379 45.2828 87.4086 46.4446 87.4086 47.2395V47.5147C88.7538 47.9427 90.2978 48.1567 92.0405 48.1567H92.3156C92.4073 48.1873 92.5144 48.2025 92.6367 48.2025Z" fill="black"/>
<path d="M110.914 57.5121C110.302 57.5121 109.92 57.2064 109.767 56.5949L109.217 54.5771C108.361 51.7338 107.734 49.3338 107.337 47.3771C107.092 46.307 106.786 44.8242 106.419 42.9287C105.991 40.7274 105.594 38.9389 105.227 37.5631L104.768 37.8382L104.172 38.1134L104.264 55.7694V56.4573C104.264 57.0688 103.989 57.3745 103.438 57.3745C103.194 57.3745 102.995 57.2981 102.842 57.1452C102.689 56.9924 102.613 56.8089 102.613 56.5949V55.907L102.705 46.6433L102.796 42.1949C102.919 36.8446 102.98 32.2892 102.98 28.5287V22.6127C102.98 22.3376 103.255 22.2 103.805 22.2C104.6 22.2 105.334 22.414 106.007 22.842C106.71 23.2701 107.26 23.851 107.658 24.5847C108.483 26.0828 108.896 27.7185 108.896 29.4917C108.896 30.8981 108.59 32.4268 107.979 34.0777C107.795 34.5363 107.566 35.0713 107.291 35.6828C107.016 36.2637 106.771 36.6611 106.557 36.8752C107.199 39.2293 108.131 42.8522 109.354 47.7439L111.51 55.9987C111.54 56.0904 111.556 56.2586 111.556 56.5032C111.556 56.7783 111.494 57.0076 111.372 57.1911C111.28 57.4051 111.128 57.5121 110.914 57.5121ZM104.126 36.6C104.371 36.6 104.784 36.3096 105.365 35.7287C105.945 35.1478 106.358 34.6586 106.603 34.2611C106.817 33.8331 107 33.1911 107.153 32.335C107.306 31.479 107.382 30.7146 107.382 30.042C107.382 28.7885 107.168 27.5045 106.74 26.1898C106.526 25.4255 106.205 24.814 105.777 24.3554C105.349 23.8662 104.875 23.6217 104.356 23.6217H104.264C104.233 23.6522 104.187 23.6675 104.126 23.6675V36.6Z" fill="black"/>
<path d="M125.919 57.0535C125.674 57.0535 125.46 56.9771 125.277 56.8242C125.124 56.6713 125.048 56.4879 125.048 56.2739V50.2662C125.048 49.8994 124.268 49.5631 122.709 49.2573C121.15 48.9516 119.866 48.7987 118.857 48.7987C118.796 48.7987 118.689 49.028 118.536 49.4866C118.413 49.9452 118.322 50.2815 118.26 50.4955C117.863 52.0854 117.466 53.7822 117.068 55.586L116.839 56.5949C116.778 56.8395 116.625 56.9618 116.38 56.9618C116.136 56.9618 115.906 56.8854 115.692 56.7325C115.509 56.5796 115.417 56.3962 115.417 56.1822L115.463 56.0904V56.0446L115.967 53.7516C116.334 52.3147 116.655 50.9083 116.931 49.5325C117.236 47.9732 117.466 46.9643 117.618 46.5057C117.863 45.4968 118.352 42.9745 119.086 38.9389L119.361 37.4255C120.156 32.7172 120.706 29.7516 121.012 28.5287C121.165 27.7949 121.44 26.7096 121.838 25.2726C121.99 24.6611 122.204 24.0497 122.48 23.4382C122.755 22.9185 122.984 22.6586 123.167 22.6586C123.657 22.6586 124.008 22.8115 124.222 23.1172C124.375 23.3924 124.604 24.9057 124.91 27.6573C125.246 30.4089 125.537 33.1911 125.782 36.0038L126.378 43.6166C126.378 44.9312 126.469 46.9185 126.653 49.5783C126.836 52.2688 126.928 54.2713 126.928 55.586V55.7694C126.928 56.1057 126.882 56.4115 126.79 56.6866C126.668 56.9312 126.378 57.0535 125.919 57.0535ZM124.085 48.2025C124.696 48.2025 125.002 48.0497 125.002 47.7439C125.002 45.8484 124.895 43.265 124.681 39.9936C124.467 36.6917 124.238 33.7873 123.993 31.2803C123.932 30.2102 123.81 29.0331 123.626 27.749L123.443 25.9605C123.443 25.9911 123.412 25.8229 123.351 25.4561L123.259 24.9057C123.015 25.5783 122.77 26.5108 122.525 27.7032C122.311 28.8955 122.082 30.3019 121.838 31.9223C121.104 36.4777 120.477 39.9019 119.957 42.1949L119.545 43.7541C119.086 45.2828 118.857 46.4446 118.857 47.2395V47.5147C120.202 47.9427 121.746 48.1567 123.489 48.1567H123.764C123.855 48.1873 123.962 48.2025 124.085 48.2025Z" fill="black"/>
<path d="M24.4306 103.961C24.0637 103.961 23.6968 103.869 23.3299 103.685C22.9631 103.502 22.7796 103.288 22.7796 103.043C22.7796 102.86 22.9019 102.554 23.1465 102.126C23.3911 101.729 23.4981 101.423 23.4675 101.209L23.3299 97.1733L23.0089 84.6535L22.9172 79.1045C22.8866 75.7108 22.8102 73.586 22.6879 72.7299C22.6268 72.3936 22.5045 72.0115 22.321 71.5834C22.107 71.0026 22 70.5898 22 70.3452C22 69.6115 23.1618 69.2446 25.4854 69.2446H25.7147C27.2739 69.2446 28.6191 69.7796 29.7503 70.8497C30.6369 71.6752 31.4318 72.9745 32.135 74.7478C32.6242 76.1541 32.9911 77.7287 33.2357 79.4713C33.358 80.3885 33.465 81.7949 33.5567 83.6905V85.1121C33.5567 87.0077 33.2968 89.0713 32.7771 91.3032C32.2879 93.5045 31.5847 95.5682 30.6675 97.4943C30.1172 98.7172 29.3987 99.8178 28.5121 100.796C27.6561 101.775 26.8306 102.554 26.0357 103.135C25.2408 103.685 24.7057 103.961 24.4306 103.961ZM25.1185 101.622C26.2497 101.041 27.2586 100.2 28.1452 99.0994C29.0318 97.9682 29.735 96.7299 30.2548 95.3847C30.7134 94.2535 31.0955 92.9694 31.4013 91.5325C31.707 90.065 31.921 88.7045 32.0433 87.451C32.135 86.3503 32.1809 85.2955 32.1809 84.2866C32.1809 75.3592 29.7197 70.8955 24.7975 70.8955C24.1554 70.8955 23.8344 71.0637 23.8344 71.4C23.8344 72.4701 23.8955 73.7389 24.0178 75.2064C24.1401 76.7045 24.2013 77.9733 24.2013 79.0127C24.2013 80.6943 24.3236 83.614 24.5682 87.772C24.7822 91.3796 24.8892 94.2841 24.8892 96.4854V101.622H25.1185Z" fill="black"/>
<path d="M41.805 104.144C41.0713 104.144 40.5515 104.068 40.2458 103.915C39.9706 103.792 39.833 103.532 39.833 103.135V102.264C39.8025 102.019 39.7872 101.744 39.7872 101.438V101.347L39.833 94.651L39.7872 75.7108C39.7872 73.7541 39.7566 72.0573 39.6955 70.6204C39.6955 70.2535 39.7719 69.9478 39.9248 69.7032C40.0776 69.4586 40.2764 69.3363 40.5209 69.3363H43.3643C43.7923 69.3363 44.1133 69.3669 44.3273 69.428C44.633 69.5198 44.7859 69.7796 44.7859 70.2077C44.7859 70.4522 44.6942 70.651 44.5107 70.8038C44.3273 70.9567 44.1286 71.0484 43.9146 71.079H43.135L42.4012 71.0331L41.6674 70.9873C41.4534 70.9873 41.3006 71.0331 41.2088 71.1248C41.1477 71.186 41.1171 71.3236 41.1171 71.5376C41.1171 72.9745 41.1324 74.2739 41.163 75.4357V79.3338V85.0662C41.163 85.1274 41.1936 85.158 41.2547 85.158H41.3006H41.3464C42.1107 85.0968 42.9362 85.0662 43.8228 85.0662C44.312 85.0662 44.5566 85.2803 44.5566 85.7083C44.5566 86.014 44.4955 86.228 44.3732 86.3503C44.2814 86.442 44.1133 86.4879 43.8687 86.4879H41.2547C41.1324 86.4879 41.0713 86.5643 41.0713 86.7172L41.163 93.5045C41.2241 95.614 41.2547 98.0446 41.2547 100.796V102.493H43.2267H45.1528H45.5655C46.1158 102.493 46.391 102.692 46.391 103.089C46.391 103.578 46.2534 103.869 45.9783 103.961C45.6114 104.083 44.8623 104.144 43.7311 104.144H41.805Z" fill="black"/>
<path d="M64.9653 104.924C64.5679 104.924 64.2927 104.817 64.1399 104.603C64.0176 104.419 63.9564 104.098 63.9564 103.639V99.4662C63.9564 97.3873 63.8953 94.865 63.773 91.8994C63.7424 91.3491 63.7271 90.5541 63.7271 89.5147C63.6354 87.344 63.5895 85.6319 63.5895 84.3784L63.6354 81.8102C63.666 81.0459 63.6812 80.1898 63.6812 79.242C63.6812 78.4166 63.666 77.6828 63.6354 77.0408C63.6048 76.5822 63.5742 76.2 63.5437 75.8943C63.5437 75.5885 63.5284 75.344 63.4978 75.1605L63.4061 75.4815C63.0698 77.7134 62.5653 80.6484 61.8927 84.2866C61.2201 87.9248 60.6698 90.8446 60.2418 93.0459C59.8137 95.0026 59.5386 96.3936 59.4163 97.2191C59.3551 97.6166 59.2176 97.9376 59.0035 98.1822C58.8201 98.4268 58.6061 98.5491 58.3615 98.5491C58.1169 98.5491 57.9029 98.4268 57.7195 98.1822C57.536 97.9376 57.429 97.586 57.3984 97.1274C57.1844 95.6599 56.4048 91.5631 55.0596 84.837C53.7144 78.1108 52.9653 74.6255 52.8125 74.3809C52.7207 77.1325 52.6749 80.2204 52.6749 83.6446C52.6749 86.335 52.6902 88.7656 52.7207 90.9363C52.7513 93.107 52.7666 95.5376 52.7666 98.228C52.7666 98.6866 52.8125 99.4051 52.9042 100.383L52.9959 102.585C52.9959 103.166 52.8889 103.563 52.6749 103.777C51.7883 103.777 51.3449 102.982 51.3449 101.392V93.7338L51.3908 89.1019C51.4214 87.7261 51.4367 86.1669 51.4367 84.4242C51.4367 82.4064 51.4519 80.6026 51.4825 79.0127L51.5742 73.5554V69.5198C51.5742 69.3669 51.6354 69.2293 51.7577 69.107C51.9105 68.9847 52.0634 68.9236 52.2163 68.9236C52.4609 68.9236 52.629 69.0459 52.7207 69.2905C52.9959 70.2077 53.6838 72.9134 54.7844 77.4076C55.8851 81.9019 56.7105 85.372 57.2609 87.8178C57.536 89.2548 57.9793 91.7924 58.5908 95.4306L58.9118 93.642C59.0035 93.0917 59.1411 92.3274 59.3246 91.3491C59.6914 88.9643 59.9207 87.6191 60.0125 87.3134L62.122 76.0777L62.5348 73.693L63.0392 71.1248L63.2685 69.7491C63.2991 69.4433 63.3908 69.214 63.5437 69.0612C63.6965 68.8777 63.8647 68.786 64.0481 68.786C64.201 68.786 64.3386 68.8624 64.4609 69.0153C64.5832 69.1682 64.6443 69.3822 64.6443 69.6573V74.1975C64.6443 76.4905 64.7819 79.9605 65.057 84.6077C65.2711 88.8879 65.3781 92.3274 65.3781 94.9261C65.3781 95.7516 65.4239 97.0204 65.5156 98.7325C65.5768 100.934 65.6074 102.462 65.6074 103.318C65.6074 103.991 65.5615 104.434 65.4698 104.648C65.3475 104.832 65.1793 104.924 64.9653 104.924Z" fill="black"/>
<path d="M81.0625 103.869C80.8179 103.869 80.6039 103.792 80.4205 103.639C80.2676 103.487 80.1912 103.303 80.1912 103.089V97.0815C80.1912 96.7147 79.4115 96.3784 77.8523 96.0726C76.2931 95.7669 75.009 95.614 74.0001 95.614C73.9389 95.614 73.8319 95.8433 73.6791 96.3019C73.5568 96.7605 73.465 97.0968 73.4039 97.3108C73.0064 98.9006 72.609 100.597 72.2115 102.401L71.9822 103.41C71.9211 103.655 71.7682 103.777 71.5236 103.777C71.2791 103.777 71.0498 103.701 70.8358 103.548C70.6523 103.395 70.5606 103.211 70.5606 102.997L70.6064 102.906V102.86L71.1109 100.567C71.4778 99.1299 71.7988 97.7236 72.074 96.3478C72.3797 94.7885 72.609 93.7796 72.7619 93.321C73.0065 92.3121 73.4956 89.7898 74.2294 85.7541L74.5045 84.2408C75.2994 79.5325 75.8498 76.5669 76.1555 75.344C76.3084 74.6102 76.5835 73.5248 76.981 72.0879C77.1338 71.4764 77.3479 70.865 77.623 70.2535C77.8982 69.7338 78.1275 69.4739 78.3109 69.4739C78.8001 69.4739 79.1517 69.6268 79.3657 69.9325C79.5185 70.2077 79.7478 71.721 80.0536 74.4726C80.3899 77.2242 80.6803 80.0064 80.9249 82.8191L81.5211 90.4319C81.5211 91.7465 81.6128 93.7338 81.7963 96.3936C81.9797 99.0841 82.0714 101.087 82.0714 102.401V102.585C82.0714 102.921 82.0256 103.227 81.9338 103.502C81.8115 103.747 81.5211 103.869 81.0625 103.869ZM79.2281 95.0178C79.8396 95.0178 80.1453 94.865 80.1453 94.5592C80.1453 92.6637 80.0383 90.0803 79.8243 86.8089C79.6103 83.507 79.381 80.6026 79.1364 78.0955C79.0752 77.0255 78.9529 75.8484 78.7695 74.5643L78.5861 72.7758C78.5861 72.8064 78.5555 72.6382 78.4944 72.2713L78.4026 71.721C78.158 72.3936 77.9135 73.3261 77.6689 74.5185C77.4549 75.7108 77.2256 77.1172 76.981 78.7376C76.2472 83.293 75.6205 86.7172 75.1007 89.0102L74.688 90.5694C74.2294 92.0981 74.0001 93.2599 74.0001 94.0548V94.3299C75.3453 94.758 76.8893 94.972 78.6319 94.972H78.9071C78.9988 95.0026 79.1058 95.0178 79.2281 95.0178Z" fill="black"/>
<path d="M96.3586 104.327C95.7471 104.327 95.3649 104.022 95.2121 103.41L94.6617 101.392C93.8057 98.5491 93.1789 96.1491 92.7815 94.1924C92.5369 93.1223 92.2312 91.6395 91.8643 89.744C91.4363 87.5427 91.0388 85.7541 90.6719 84.3784L90.2133 84.6535L89.6171 84.9287L89.7089 102.585V103.273C89.7089 103.884 89.4337 104.19 88.8834 104.19C88.6388 104.19 88.4401 104.113 88.2872 103.961C88.1344 103.808 88.0579 103.624 88.0579 103.41V102.722L88.1496 93.4586L88.2414 89.0102C88.3637 83.6599 88.4248 79.1045 88.4248 75.344V69.428C88.4248 69.1529 88.7 69.0153 89.2503 69.0153C90.0452 69.0153 90.7789 69.2293 91.4516 69.6573C92.1547 70.0854 92.7051 70.6662 93.1025 71.4C93.928 72.8981 94.3407 74.5338 94.3407 76.307C94.3407 77.7134 94.035 79.242 93.4235 80.893C93.2401 81.3516 93.0108 81.8866 92.7356 82.4981C92.4605 83.079 92.2159 83.4764 92.0019 83.6905C92.6439 86.0446 93.5764 89.6675 94.7993 94.5592L96.9547 102.814C96.9853 102.906 97.0006 103.074 97.0006 103.318C97.0006 103.594 96.9394 103.823 96.8172 104.006C96.7254 104.22 96.5726 104.327 96.3586 104.327ZM89.5713 83.4153C89.8159 83.4153 90.2286 83.1248 90.8095 82.544C91.3904 81.9631 91.8031 81.4739 92.0477 81.0764C92.2617 80.6484 92.4452 80.0064 92.598 79.1503C92.7509 78.2943 92.8273 77.5299 92.8273 76.8573C92.8273 75.6038 92.6133 74.3198 92.1853 73.0051C91.9713 72.2408 91.6503 71.6293 91.2223 71.1707C90.7942 70.6815 90.3203 70.4369 89.8006 70.4369H89.7089C89.6783 70.4675 89.6324 70.4828 89.5713 70.4828V83.4153Z" fill="black"/>
<path d="M107.42 104.603C106.564 104.603 105.662 104.266 104.714 103.594C103.767 102.921 103.094 102.157 102.697 101.301C102.33 100.506 101.947 97.9834 101.55 93.7338C101.183 89.4841 101 86.3198 101 84.2408V81.8102C100.969 81.107 100.954 80.3274 100.954 79.4713C100.954 77.8815 101.046 76.307 101.229 74.7478C101.351 73.9834 101.504 73.3261 101.688 72.7758C101.902 72.2255 102.192 71.6905 102.559 71.1707C103.232 70.1312 104.24 69.4433 105.586 69.107C106.289 68.9236 107.069 68.8319 107.925 68.8319C108.505 68.8319 109.086 69 109.667 69.3363C110.279 69.6726 110.584 70.0701 110.584 70.5287C110.584 70.865 110.34 71.0331 109.851 71.0331C109.667 71.0331 109.316 70.9261 108.796 70.7121C108.337 70.4981 107.925 70.3911 107.558 70.3911C106.702 70.3911 105.922 70.5745 105.219 70.9414C104.546 71.2777 104.011 71.7363 103.614 72.3172C103.277 72.8064 102.987 73.479 102.742 74.335C102.498 75.1911 102.345 76.0471 102.284 76.9032C102.192 77.6675 102.146 78.5847 102.146 79.6548L102.192 82.2229C102.223 82.9567 102.238 83.7516 102.238 84.6077C102.238 86.7172 102.452 89.8204 102.88 93.9172C103.308 98.014 103.721 100.383 104.118 101.025C104.485 101.606 105.02 102.05 105.723 102.355C106.457 102.661 107.221 102.814 108.016 102.814C109.423 102.814 110.493 102.371 111.226 101.484C111.502 101.117 111.792 100.934 112.098 100.934C112.373 100.934 112.511 101.148 112.511 101.576C112.511 102.126 112.342 102.615 112.006 103.043C111.67 103.441 111.211 103.747 110.63 103.961C109.652 104.389 108.582 104.603 107.42 104.603Z" fill="black"/>
<path d="M122.466 104.832C118.216 104.832 116.091 97.479 116.091 82.7733V80.9389C116.091 78.3707 116.244 76.1389 116.55 74.2433C116.733 73.051 116.978 72.0726 117.284 71.3083C117.62 70.544 118.063 69.9325 118.613 69.4739C119.133 68.9541 119.806 68.6943 120.631 68.6943C121.365 68.6943 122.038 68.8471 122.649 69.1529C123.261 69.428 123.765 69.7949 124.163 70.2535C124.499 70.6815 124.805 71.2471 125.08 71.9503C125.355 72.6535 125.569 73.3261 125.722 73.9682L126.089 76.1236C126.822 81.3516 127.189 85.9834 127.189 90.0191V90.1567C127.189 91.6854 127.159 93.0917 127.098 94.3758C127.036 95.9045 126.868 97.5096 126.593 99.1911C126.471 100.017 126.287 100.735 126.043 101.347C125.829 101.958 125.538 102.569 125.171 103.181C124.529 104.282 123.628 104.832 122.466 104.832ZM122.557 103.548C123.047 103.548 123.49 103.273 123.887 102.722C124.285 102.141 124.591 101.347 124.805 100.338C125.294 98.1975 125.599 96.1032 125.722 94.0548C125.783 92.4038 125.813 90.7987 125.813 89.2395V89.0561L125.768 84.4701C125.706 82.8191 125.523 80.679 125.217 78.0497C124.973 76.1847 124.468 74.2739 123.704 72.3172C123.398 71.5529 122.985 70.9567 122.466 70.5287C121.977 70.1006 121.442 69.8866 120.861 69.8866C120.341 69.8866 119.882 70.1312 119.485 70.6204C119.087 71.1096 118.766 71.7975 118.522 72.6841C117.971 74.7325 117.666 76.628 117.605 78.3707C117.513 79.8688 117.467 81.4127 117.467 83.0026V85.2497C117.467 87.2981 117.666 89.8968 118.063 93.0459C118.308 95.0331 118.613 96.7605 118.98 98.228C119.347 99.6956 119.836 100.934 120.448 101.943C121.059 103.013 121.763 103.548 122.557 103.548Z" fill="black"/>
</svg>
