<svg width="200" height="161" viewBox="0 0 200 161" fill="none" xmlns="http://www.w3.org/2000/svg">
<path fill-rule="evenodd" clip-rule="evenodd" d="M197.452 2.54777H2.54777V157.962H197.452V2.54777ZM0 0V160.51H200V0H0Z" fill="black"/>
<path d="M32.3259 72.9784C30.8176 72.9784 30.0635 72.693 30.0635 72.1223C30.0635 70.4102 30.1246 67.8217 30.2469 64.3567L30.3692 56.6523C30.3692 53.7988 30.308 49.5389 30.1857 43.8726C30.0227 38.8586 29.9412 34.6191 29.9412 31.1542C29.9412 28.2191 30.4711 26.7516 31.531 26.7516C34.2622 26.7516 36.3615 27.6281 37.8291 29.3809C39.3373 31.1338 40.0915 33.4574 40.0915 36.3516C40.0915 39.6128 38.787 42.9962 36.1781 46.5019C38.3386 48.6625 39.8469 50.7211 40.7029 52.6777C41.5998 54.6344 42.0482 56.9784 42.0482 59.7096C42.0482 61.3809 41.987 62.7262 41.8647 63.7453C41.7832 64.7236 41.5998 65.6408 41.3144 66.4969C41.0291 67.3937 40.6214 68.1682 40.0915 68.8204C39.6023 69.4726 38.9297 70.0841 38.0736 70.6548C37.2584 71.2255 36.1985 71.7962 34.894 72.3669C34.4049 72.4892 33.9972 72.5911 33.6711 72.6726C33.1412 72.8765 32.7335 72.9784 32.4482 72.9784H32.3259ZM32.2647 46.1962C33.1615 46.1962 34.0176 45.809 34.8329 45.0344C35.6482 44.2599 36.3208 43.2408 36.8507 41.9771C37.3807 40.7949 37.7883 39.572 38.0736 38.3083C38.359 37.0039 38.5017 35.8217 38.5017 34.7618C38.5017 33.3351 37.9717 31.9898 36.9119 30.7261C35.8928 29.4625 34.731 28.8306 33.4265 28.8306C32.3666 28.8306 31.8367 29.707 31.8367 31.4599C31.8367 34.1911 31.8775 36.637 31.959 38.7975L32.0813 46.1351L32.2647 46.1962ZM32.7539 70.5937C34.1399 70.5937 35.4036 70.186 36.545 69.3707C37.7271 68.5147 38.6443 67.3937 39.2966 66.0077C39.9896 64.6217 40.3361 63.1338 40.3361 61.544C40.3361 54.2472 38.5832 49.865 35.0775 48.3975C34.7514 48.3975 34.2214 48.4994 33.4877 48.7032C32.7947 48.9478 32.3259 49.0701 32.0813 49.0701C32.2851 55.7147 32.387 62.8688 32.387 70.5325H32.5705L32.7539 70.5937Z" fill="black"/>
<path d="M62.7931 72.6115C62.467 72.6115 62.1816 72.5096 61.937 72.3058C61.7332 72.1019 61.6313 71.8574 61.6313 71.572V63.5618C61.6313 63.0726 60.5918 62.6242 58.5128 62.2166C56.4338 61.809 54.7217 61.6051 53.3765 61.6051C53.295 61.6051 53.1523 61.9109 52.9485 62.5223C52.7854 63.1338 52.6631 63.5822 52.5816 63.8676C52.0517 65.9873 51.5217 68.2497 50.9918 70.6548L50.6861 72C50.6045 72.3262 50.4007 72.4892 50.0746 72.4892C49.7485 72.4892 49.4428 72.3873 49.1574 72.1835C48.9128 71.9797 48.7905 71.7351 48.7905 71.4497L48.8517 71.3274V71.2663L49.5243 68.209C50.0135 66.293 50.4415 64.4179 50.8084 62.5835C51.216 60.5045 51.5217 59.1593 51.7256 58.5478C52.0517 57.2026 52.7039 53.8395 53.6822 48.4586L54.0491 46.4408C55.109 40.1631 55.8428 36.209 56.2504 34.5784C56.4542 33.6 56.8211 32.1529 57.351 30.237C57.5549 29.4217 57.8402 28.6064 58.2071 27.7911C58.574 27.0981 58.8797 26.7516 59.1243 26.7516C59.7765 26.7516 60.2453 26.9554 60.5307 27.3631C60.7345 27.73 61.0402 29.7478 61.4479 33.4166C61.8963 37.0854 62.2835 40.7949 62.6096 44.5453L63.4045 54.6956C63.4045 56.4484 63.5268 59.0981 63.7714 62.6446C64.016 66.2319 64.1383 68.902 64.1383 70.6548V70.8994C64.1383 71.3478 64.0772 71.7555 63.9549 72.1223C63.7918 72.4484 63.4045 72.6115 62.7931 72.6115ZM60.3472 60.8102C61.1625 60.8102 61.5701 60.6064 61.5701 60.1988C61.5701 57.6714 61.4275 54.2268 61.1421 49.865C60.8568 45.4625 60.551 41.5898 60.2249 38.2472C60.1434 36.8204 59.9803 35.251 59.7358 33.5389L59.4912 31.1542C59.4912 31.1949 59.4504 30.9707 59.3689 30.4816L59.2466 29.7478C58.9205 30.6446 58.5943 31.8879 58.2682 33.4777C57.9829 35.0676 57.6772 36.9427 57.351 39.1032C56.3727 45.1771 55.537 49.7427 54.844 52.8L54.2937 54.879C53.6822 56.9172 53.3765 58.4663 53.3765 59.5262V59.893C55.1701 60.4637 57.2287 60.7491 59.5523 60.7491H59.9192C60.0415 60.7898 60.1842 60.8102 60.3472 60.8102ZM60.4084 23.6332C60.123 23.6332 59.858 23.5516 59.6135 23.3886C59.4096 23.2255 59.3077 23.0217 59.3077 22.7771C59.3077 22.6548 59.8784 22.1249 61.0198 21.1873L62.9765 19.5975L64.6275 18.3134C66.0135 17.2535 66.7676 16.6625 66.8899 16.5402C67.7867 16.5402 68.2351 16.8459 68.2351 17.4574L68.0517 18.4357C65.9319 19.414 63.3842 21.1465 60.4084 23.6332Z" fill="black"/>
<path d="M84.7165 73.223C83.9012 73.223 83.3916 72.8153 83.1878 72L82.4541 69.3096C81.3127 65.5185 80.477 62.3185 79.9471 59.7096C79.6209 58.2828 79.2133 56.3058 78.7241 53.7784C78.1534 50.8433 77.6235 48.4586 77.1343 46.6242L76.5229 46.9911L75.7279 47.358L75.8502 70.8994V71.8166C75.8502 72.6319 75.4834 73.0395 74.7496 73.0395C74.4235 73.0395 74.1585 72.9376 73.9547 72.7338C73.7509 72.53 73.649 72.2854 73.649 72V71.0828L73.7713 58.7312L73.8936 52.8C74.0566 45.6663 74.1381 39.5924 74.1381 34.5784V26.6905C74.1381 26.3236 74.505 26.1402 75.2388 26.1402C76.2986 26.1402 77.277 26.4255 78.1738 26.9962C79.1114 27.5669 79.8451 28.3414 80.3751 29.3198C81.4757 31.3172 82.026 33.4981 82.026 35.8625C82.026 37.7376 81.6184 39.7758 80.8031 41.9771C80.5585 42.5886 80.2528 43.3019 79.8859 44.1172C79.519 44.8918 79.1929 45.4217 78.9076 45.707C79.7636 48.8459 81.0069 53.6765 82.6375 60.1988L85.5114 71.2051C85.5522 71.3274 85.5725 71.5516 85.5725 71.8777C85.5725 72.2446 85.491 72.5504 85.3279 72.7949C85.2057 73.0803 85.0018 73.223 84.7165 73.223ZM75.6668 45.3402C75.9929 45.3402 76.5432 44.9529 77.3178 44.1784C78.0923 43.4039 78.6426 42.7516 78.9687 42.2217C79.2541 41.651 79.4986 40.7949 79.7025 39.6535C79.9063 38.5121 80.0082 37.493 80.0082 36.5962C80.0082 34.9249 79.7229 33.2128 79.1522 31.4599C78.8668 30.4408 78.4388 29.6255 77.8681 29.014C77.2974 28.3618 76.6655 28.0357 75.9725 28.0357H75.8502C75.8095 28.0765 75.7483 28.0968 75.6668 28.0968V45.3402Z" fill="black"/>
<path d="M95.4907 72.9784C93.9824 72.9784 93.2283 72.693 93.2283 72.1223C93.2283 70.4102 93.2894 67.8217 93.4117 64.3567L93.534 56.6523C93.534 53.7988 93.4728 49.5389 93.3506 43.8726C93.1875 38.8586 93.106 34.6191 93.106 31.1542C93.106 28.2191 93.6359 26.7516 94.6958 26.7516C97.427 26.7516 99.5264 27.6281 100.994 29.3809C102.502 31.1338 103.256 33.4574 103.256 36.3516C103.256 39.6128 101.952 42.9962 99.3429 46.5019C101.503 48.6625 103.012 50.7211 103.868 52.6777C104.765 54.6344 105.213 56.9784 105.213 59.7096C105.213 61.3809 105.152 62.7262 105.03 63.7453C104.948 64.7236 104.765 65.6408 104.479 66.4969C104.194 67.3937 103.786 68.1682 103.256 68.8204C102.767 69.4726 102.095 70.0841 101.238 70.6548C100.423 71.2255 99.3633 71.7962 98.0588 72.3669C97.5697 72.4892 97.162 72.5911 96.8359 72.6726C96.306 72.8765 95.8983 72.9784 95.613 72.9784H95.4907ZM95.4295 46.1962C96.3263 46.1962 97.1824 45.809 97.9977 45.0344C98.813 44.2599 99.4856 43.2408 100.016 41.9771C100.545 40.7949 100.953 39.572 101.238 38.3083C101.524 37.0039 101.666 35.8217 101.666 34.7618C101.666 33.3351 101.137 31.9898 100.077 30.7261C99.0576 29.4625 97.8958 28.8306 96.5913 28.8306C95.5314 28.8306 95.0015 29.707 95.0015 31.4599C95.0015 34.1911 95.0423 36.637 95.1238 38.7975L95.2461 46.1351L95.4295 46.1962ZM95.9187 70.5937C97.3047 70.5937 98.5684 70.186 99.7098 69.3707C100.892 68.5147 101.809 67.3937 102.461 66.0077C103.154 64.6217 103.501 63.1338 103.501 61.544C103.501 54.2472 101.748 49.865 98.2423 48.3975C97.9162 48.3975 97.3862 48.4994 96.6525 48.7032C95.9595 48.9478 95.4907 49.0701 95.2461 49.0701C95.4499 55.7147 95.5518 62.8688 95.5518 70.5325H95.7353L95.9187 70.5937Z" fill="black"/>
<path d="M125.958 72.6115C125.632 72.6115 125.346 72.5096 125.102 72.3058C124.898 72.1019 124.796 71.8574 124.796 71.572V63.5618C124.796 63.0726 123.757 62.6242 121.678 62.2166C119.599 61.809 117.887 61.6051 116.541 61.6051C116.46 61.6051 116.317 61.9109 116.113 62.5223C115.95 63.1338 115.828 63.5822 115.746 63.8676C115.216 65.9873 114.687 68.2497 114.157 70.6548L113.851 72C113.769 72.3262 113.566 72.4892 113.239 72.4892C112.913 72.4892 112.608 72.3873 112.322 72.1835C112.078 71.9797 111.955 71.7351 111.955 71.4497L112.016 71.3274V71.2663L112.689 68.209C113.178 66.293 113.606 64.4179 113.973 62.5835C114.381 60.5045 114.687 59.1593 114.89 58.5478C115.216 57.2026 115.869 53.8395 116.847 48.4586L117.214 46.4408C118.274 40.1631 119.008 36.209 119.415 34.5784C119.619 33.6 119.986 32.1529 120.516 30.237C120.72 29.4217 121.005 28.6064 121.372 27.7911C121.739 27.0981 122.045 26.7516 122.289 26.7516C122.941 26.7516 123.41 26.9554 123.695 27.3631C123.899 27.73 124.205 29.7478 124.613 33.4166C125.061 37.0854 125.448 40.7949 125.774 44.5453L126.569 54.6956C126.569 56.4484 126.692 59.0981 126.936 62.6446C127.181 66.2319 127.303 68.902 127.303 70.6548V70.8994C127.303 71.3478 127.242 71.7555 127.12 72.1223C126.957 72.4484 126.569 72.6115 125.958 72.6115ZM123.512 60.8102C124.327 60.8102 124.735 60.6064 124.735 60.1988C124.735 57.6714 124.592 54.2268 124.307 49.865C124.022 45.4625 123.716 41.5898 123.39 38.2472C123.308 36.8204 123.145 35.251 122.901 33.5389L122.656 31.1542C122.656 31.1949 122.615 30.9707 122.534 30.4816L122.411 29.7478C122.085 30.6446 121.759 31.8879 121.433 33.4777C121.148 35.0676 120.842 36.9427 120.516 39.1032C119.538 45.1771 118.702 49.7427 118.009 52.8L117.459 54.879C116.847 56.9172 116.541 58.4663 116.541 59.5262V59.893C118.335 60.4637 120.394 60.7491 122.717 60.7491H123.084C123.206 60.7898 123.349 60.8102 123.512 60.8102Z" fill="black"/>
<path d="M147.881 73.223C147.066 73.223 146.556 72.8153 146.353 72L145.619 69.3096C144.477 65.5185 143.642 62.3185 143.112 59.7096C142.786 58.2828 142.378 56.3058 141.889 53.7784C141.318 50.8433 140.788 48.4586 140.299 46.6242L139.688 46.9911L138.893 47.358L139.015 70.8994V71.8166C139.015 72.6319 138.648 73.0395 137.914 73.0395C137.588 73.0395 137.323 72.9376 137.12 72.7338C136.916 72.53 136.814 72.2854 136.814 72V71.0828L136.936 58.7312L137.058 52.8C137.221 45.6663 137.303 39.5924 137.303 34.5784V26.6905C137.303 26.3236 137.67 26.1402 138.404 26.1402C139.463 26.1402 140.442 26.4255 141.339 26.9962C142.276 27.5669 143.01 28.3414 143.54 29.3198C144.641 31.3172 145.191 33.4981 145.191 35.8625C145.191 37.7376 144.783 39.7758 143.968 41.9771C143.723 42.5886 143.418 43.3019 143.051 44.1172C142.684 44.8918 142.358 45.4217 142.072 45.707C142.928 48.8459 144.172 53.6765 145.802 60.1988L148.676 71.2051C148.717 71.3274 148.737 71.5516 148.737 71.8777C148.737 72.2446 148.656 72.5504 148.493 72.7949C148.37 73.0803 148.167 73.223 147.881 73.223ZM138.832 45.3402C139.158 45.3402 139.708 44.9529 140.483 44.1784C141.257 43.4039 141.807 42.7516 142.134 42.2217C142.419 41.651 142.663 40.7949 142.867 39.6535C143.071 38.5121 143.173 37.493 143.173 36.5962C143.173 34.9249 142.888 33.2128 142.317 31.4599C142.032 30.4408 141.604 29.6255 141.033 29.014C140.462 28.3618 139.83 28.0357 139.137 28.0357H139.015C138.974 28.0765 138.913 28.0968 138.832 28.0968V45.3402Z" fill="black"/>
<path d="M167.889 72.6115C167.562 72.6115 167.277 72.5096 167.033 72.3058C166.829 72.1019 166.727 71.8574 166.727 71.572V63.5618C166.727 63.0726 165.687 62.6242 163.608 62.2166C161.529 61.809 159.817 61.6051 158.472 61.6051C158.391 61.6051 158.248 61.9109 158.044 62.5223C157.881 63.1338 157.759 63.5822 157.677 63.8676C157.147 65.9873 156.617 68.2497 156.087 70.6548L155.782 72C155.7 72.3262 155.496 72.4892 155.17 72.4892C154.844 72.4892 154.538 72.3873 154.253 72.1835C154.008 71.9797 153.886 71.7351 153.886 71.4497L153.947 71.3274V71.2663L154.62 68.209C155.109 66.293 155.537 64.4179 155.904 62.5835C156.312 60.5045 156.617 59.1593 156.821 58.5478C157.147 57.2026 157.799 53.8395 158.778 48.4586L159.145 46.4408C160.205 40.1631 160.938 36.209 161.346 34.5784C161.55 33.6 161.917 32.1529 162.447 30.237C162.65 29.4217 162.936 28.6064 163.303 27.7911C163.67 27.0981 163.975 26.7516 164.22 26.7516C164.872 26.7516 165.341 26.9554 165.626 27.3631C165.83 27.73 166.136 29.7478 166.543 33.4166C166.992 37.0854 167.379 40.7949 167.705 44.5453L168.5 54.6956C168.5 56.4484 168.622 59.0981 168.867 62.6446C169.112 66.2319 169.234 68.902 169.234 70.6548V70.8994C169.234 71.3478 169.173 71.7555 169.05 72.1223C168.887 72.4484 168.5 72.6115 167.889 72.6115ZM165.443 60.8102C166.258 60.8102 166.666 60.6064 166.666 60.1988C166.666 57.6714 166.523 54.2268 166.238 49.865C165.952 45.4625 165.647 41.5898 165.32 38.2472C165.239 36.8204 165.076 35.251 164.831 33.5389L164.587 31.1542C164.587 31.1949 164.546 30.9707 164.464 30.4816L164.342 29.7478C164.016 30.6446 163.69 31.8879 163.364 33.4777C163.078 35.0676 162.773 36.9427 162.447 39.1032C161.468 45.1771 160.633 49.7427 159.94 52.8L159.389 54.879C158.778 56.9172 158.472 58.4663 158.472 59.5262V59.893C160.266 60.4637 162.324 60.7491 164.648 60.7491H165.015C165.137 60.7898 165.28 60.8102 165.443 60.8102Z" fill="black"/>
<path d="M32.5706 135.154C32.0814 135.154 31.5923 135.032 31.1031 134.787C30.6139 134.543 30.3693 134.258 30.3693 133.931C30.3693 133.687 30.5324 133.279 30.8585 132.708C31.1846 132.179 31.3273 131.771 31.2865 131.486L31.1031 126.105L30.6751 109.412L30.5528 102.013C30.512 97.4881 30.4101 94.655 30.247 93.5136C30.1655 93.0652 30.0024 92.5556 29.7579 91.9849C29.4725 91.2104 29.3298 90.6601 29.3298 90.334C29.3298 89.3556 30.8789 88.8664 33.977 88.8664H34.2827C36.3617 88.8664 38.1553 89.5798 39.6636 91.0066C40.8458 92.1072 41.9056 93.8397 42.8432 96.204C43.4954 98.0792 43.9846 100.179 44.3107 102.502C44.4738 103.725 44.6165 105.6 44.7388 108.128V110.023C44.7388 112.551 44.3923 115.302 43.6993 118.278C43.047 121.213 42.1095 123.965 40.8865 126.533C40.1528 128.163 39.1948 129.631 38.0126 130.935C36.8712 132.24 35.7706 133.279 34.7107 134.054C33.6509 134.787 32.9375 135.154 32.5706 135.154ZM33.4878 132.036C34.9961 131.261 36.3413 130.14 37.5235 128.673C38.7056 127.165 39.6432 125.514 40.3362 123.72C40.9477 122.212 41.4572 120.5 41.8649 118.584C42.2725 116.627 42.5579 114.813 42.7209 113.142C42.8432 111.674 42.9044 110.268 42.9044 108.922C42.9044 97.0193 39.6228 91.0677 33.0598 91.0677C32.2037 91.0677 31.7757 91.2919 31.7757 91.7403C31.7757 93.1671 31.8572 94.8588 32.0203 96.8155C32.1833 98.8129 32.2649 100.505 32.2649 101.891C32.2649 104.133 32.4279 108.026 32.754 113.57C33.0394 118.38 33.1821 122.252 33.1821 125.187V132.036H33.4878Z" fill="black"/>
<path d="M55.7365 135.399C54.7582 135.399 54.0652 135.297 53.6575 135.093C53.2907 134.93 53.1072 134.584 53.1072 134.054V132.892C53.0665 132.566 53.0461 132.199 53.0461 131.791V131.669L53.1072 122.742L53.0461 97.4881C53.0461 94.8792 53.0053 92.6168 52.9238 90.7008C52.9238 90.2117 53.0257 89.804 53.2295 89.4779C53.4333 89.1518 53.6983 88.9887 54.0244 88.9887H57.8155C58.3862 88.9887 58.8142 89.0295 59.0996 89.111C59.5072 89.2333 59.711 89.5798 59.711 90.1505C59.711 90.4766 59.5888 90.7416 59.3442 90.9454C59.0996 91.1493 58.8346 91.2715 58.5493 91.3123H57.5098L56.5314 91.2512L55.5531 91.19C55.2677 91.19 55.0639 91.2512 54.9416 91.3735C54.8601 91.455 54.8193 91.6384 54.8193 91.9238C54.8193 93.8397 54.8397 95.5722 54.8805 97.1212V102.319V109.962C54.8805 110.044 54.9212 110.084 55.0028 110.084H55.0639H55.1251C56.1442 110.003 57.2448 109.962 58.427 109.962C59.0792 109.962 59.4053 110.247 59.4053 110.818C59.4053 111.226 59.3238 111.511 59.1607 111.674C59.0384 111.796 58.8142 111.858 58.4881 111.858H55.0028C54.8397 111.858 54.7582 111.959 54.7582 112.163L54.8805 121.213C54.962 124.026 55.0028 127.266 55.0028 130.935V133.198H57.6321H60.2002H60.7505C61.4843 133.198 61.8512 133.463 61.8512 133.993C61.8512 134.645 61.6677 135.032 61.3009 135.154C60.8117 135.317 59.813 135.399 58.3047 135.399H55.7365Z" fill="black"/>
<path d="M86.6169 136.438C86.087 136.438 85.7201 136.296 85.5163 136.01C85.3532 135.766 85.2717 135.338 85.2717 134.726V129.162C85.2717 126.39 85.1902 123.027 85.0271 119.073C84.9864 118.339 84.966 117.279 84.966 115.893C84.8437 112.999 84.7825 110.716 84.7825 109.045L84.8437 105.621C84.8845 104.601 84.9048 103.46 84.9048 102.196C84.9048 101.096 84.8845 100.117 84.8437 99.2614C84.8029 98.6499 84.7622 98.1403 84.7214 97.7327C84.7214 97.325 84.701 96.9989 84.6603 96.7543L84.538 97.1824C84.0896 100.158 83.4169 104.072 82.5201 108.922C81.6233 113.773 80.8895 117.666 80.3188 120.601C79.7481 123.21 79.3813 125.065 79.2182 126.166C79.1367 126.696 78.9532 127.124 78.6679 127.45C78.4233 127.776 78.138 127.939 77.8118 127.939C77.4857 127.939 77.2004 127.776 76.9558 127.45C76.7112 127.124 76.5685 126.655 76.5278 126.044C76.2424 124.087 75.2029 118.624 73.4093 109.656C71.6157 100.688 70.6169 96.041 70.4131 95.7149C70.2908 99.3836 70.2297 103.501 70.2297 108.066C70.2297 111.654 70.2501 114.894 70.2908 117.789C70.3316 120.683 70.352 123.924 70.352 127.511C70.352 128.123 70.4131 129.08 70.5354 130.385L70.6577 133.32C70.6577 134.094 70.515 134.624 70.2297 134.91C69.0475 134.91 68.4564 133.85 68.4564 131.73V121.519L68.5176 115.343C68.5583 113.508 68.5787 111.43 68.5787 109.106C68.5787 106.415 68.5991 104.01 68.6399 101.891L68.7622 94.6142V89.2333C68.7622 89.0295 68.8437 88.8461 69.0067 88.683C69.2106 88.52 69.4144 88.4384 69.6182 88.4384C69.9443 88.4384 70.1685 88.6015 70.2908 88.9276C70.6577 90.1505 71.5749 93.7582 73.0424 99.7505C74.5099 105.743 75.6106 110.37 76.3443 113.631C76.7112 115.547 77.3023 118.93 78.1176 123.781L78.5456 121.396C78.6679 120.663 78.8513 119.644 79.0959 118.339C79.5851 115.159 79.8908 113.366 80.0131 112.958L82.8259 97.9773L83.3762 94.7977L84.0488 91.3735L84.3545 89.5391C84.3953 89.1314 84.5176 88.8257 84.7214 88.6219C84.9252 88.3773 85.1494 88.255 85.394 88.255C85.5978 88.255 85.7813 88.3569 85.9443 88.5607C86.1074 88.7645 86.1889 89.0499 86.1889 89.4168V95.4703C86.1889 98.5276 86.3724 103.154 86.7392 109.351C87.0246 115.058 87.1673 119.644 87.1673 123.108C87.1673 124.209 87.2284 125.901 87.3507 128.184C87.4322 131.119 87.473 133.157 87.473 134.298C87.473 135.195 87.4118 135.786 87.2895 136.072C87.1265 136.316 86.9023 136.438 86.6169 136.438Z" fill="black"/>
<path d="M108.08 135.032C107.754 135.032 107.468 134.93 107.224 134.726C107.02 134.522 106.918 134.278 106.918 133.993V125.982C106.918 125.493 105.879 125.045 103.8 124.637C101.721 124.23 100.008 124.026 98.6633 124.026C98.5817 124.026 98.4391 124.331 98.2353 124.943C98.0722 125.554 97.9499 126.003 97.8684 126.288C97.3384 128.408 96.8085 130.67 96.2786 133.075L95.9728 134.421C95.8913 134.747 95.6875 134.91 95.3614 134.91C95.0352 134.91 94.7295 134.808 94.4442 134.604C94.1996 134.4 94.0773 134.156 94.0773 133.87L94.1384 133.748V133.687L94.811 130.63C95.3002 128.714 95.7282 126.838 96.0951 125.004C96.5028 122.925 96.8085 121.58 97.0123 120.968C97.3384 119.623 97.9907 116.26 98.969 110.879L99.3359 108.861C100.396 102.584 101.13 98.6295 101.537 96.9989C101.741 96.0206 102.108 94.5735 102.638 92.6575C102.842 91.8422 103.127 91.027 103.494 90.2117C103.861 89.5187 104.166 89.1722 104.411 89.1722C105.063 89.1722 105.532 89.376 105.817 89.7836C106.021 90.1505 106.327 92.1684 106.735 95.8371C107.183 99.5059 107.57 103.215 107.896 106.966L108.691 117.116C108.691 118.869 108.814 121.519 109.058 125.065C109.303 128.652 109.425 131.323 109.425 133.075V133.32C109.425 133.768 109.364 134.176 109.242 134.543C109.079 134.869 108.691 135.032 108.08 135.032ZM105.634 123.231C106.449 123.231 106.857 123.027 106.857 122.619C106.857 120.092 106.714 116.647 106.429 112.286C106.144 107.883 105.838 104.01 105.512 100.668C105.43 99.241 105.267 97.6715 105.023 95.9594L104.778 93.5747C104.778 93.6155 104.737 93.3913 104.656 92.9021L104.533 92.1684C104.207 93.0652 103.881 94.3085 103.555 95.8983C103.27 97.4881 102.964 99.3633 102.638 101.524C101.659 107.598 100.824 112.163 100.131 115.221L99.5805 117.3C98.969 119.338 98.6633 120.887 98.6633 121.947V122.314C100.457 122.884 102.516 123.17 104.839 123.17H105.206C105.328 123.21 105.471 123.231 105.634 123.231Z" fill="black"/>
<path d="M128.475 135.644C127.659 135.644 127.15 135.236 126.946 134.421L126.212 131.73C125.071 127.939 124.235 124.739 123.705 122.13C123.379 120.703 122.971 118.726 122.482 116.199C121.912 113.264 121.382 110.879 120.892 109.045L120.281 109.412L119.486 109.779L119.608 133.32V134.237C119.608 135.052 119.241 135.46 118.508 135.46C118.182 135.46 117.917 135.358 117.713 135.154C117.509 134.951 117.407 134.706 117.407 134.421V133.503L117.529 121.152L117.652 115.221C117.815 108.087 117.896 102.013 117.896 96.9989V89.111C117.896 88.7442 118.263 88.5607 118.997 88.5607C120.057 88.5607 121.035 88.8461 121.932 89.4168C122.869 89.9875 123.603 90.762 124.133 91.7403C125.234 93.7378 125.784 95.9187 125.784 98.283C125.784 100.158 125.376 102.196 124.561 104.398C124.317 105.009 124.011 105.722 123.644 106.538C123.277 107.312 122.951 107.842 122.666 108.128C123.522 111.266 124.765 116.097 126.396 122.619L129.269 133.626C129.31 133.748 129.331 133.972 129.331 134.298C129.331 134.665 129.249 134.971 129.086 135.215C128.964 135.501 128.76 135.644 128.475 135.644ZM119.425 107.761C119.751 107.761 120.301 107.373 121.076 106.599C121.85 105.824 122.401 105.172 122.727 104.642C123.012 104.072 123.257 103.215 123.461 102.074C123.664 100.933 123.766 99.9136 123.766 99.0168C123.766 97.3454 123.481 95.6333 122.91 93.8805C122.625 92.8614 122.197 92.0461 121.626 91.4346C121.055 90.7824 120.424 90.4563 119.731 90.4563H119.608C119.568 90.497 119.506 90.5174 119.425 90.5174V107.761Z" fill="black"/>
<path d="M143.223 136.01C142.082 136.01 140.879 135.562 139.616 134.665C138.352 133.768 137.455 132.749 136.925 131.608C136.436 130.548 135.926 127.185 135.397 121.519C134.907 115.852 134.663 111.633 134.663 108.861V105.621C134.622 104.683 134.602 103.644 134.602 102.502C134.602 100.382 134.724 98.283 134.969 96.204C135.132 95.1849 135.335 94.3085 135.58 93.5747C135.865 92.841 136.253 92.1276 136.742 91.4346C137.639 90.0486 138.984 89.1314 140.777 88.683C141.715 88.4384 142.755 88.3161 143.896 88.3161C144.67 88.3161 145.445 88.5403 146.219 88.9887C147.035 89.4371 147.442 89.9671 147.442 90.5785C147.442 91.027 147.116 91.2512 146.464 91.2512C146.219 91.2512 145.751 91.1085 145.058 90.8231C144.446 90.5378 143.896 90.3951 143.407 90.3951C142.265 90.3951 141.226 90.6397 140.288 91.1289C139.391 91.5773 138.678 92.1887 138.148 92.9633C137.7 93.6155 137.312 94.5123 136.986 95.6537C136.66 96.7951 136.456 97.9365 136.375 99.0779C136.253 100.097 136.191 101.32 136.191 102.747L136.253 106.171C136.293 107.149 136.314 108.209 136.314 109.351C136.314 112.163 136.599 116.301 137.17 121.763C137.741 127.226 138.291 130.385 138.821 131.241C139.31 132.015 140.023 132.607 140.961 133.014C141.939 133.422 142.958 133.626 144.018 133.626C145.893 133.626 147.32 133.035 148.298 131.852C148.665 131.363 149.053 131.119 149.46 131.119C149.827 131.119 150.011 131.404 150.011 131.975C150.011 132.708 149.786 133.361 149.338 133.931C148.89 134.461 148.278 134.869 147.504 135.154C146.199 135.725 144.772 136.01 143.223 136.01Z" fill="black"/>
<path d="M163.284 136.316C157.618 136.316 154.785 126.512 154.785 106.905V104.459C154.785 101.035 154.989 98.0588 155.396 95.5314C155.641 93.9416 155.967 92.6371 156.375 91.618C156.823 90.5989 157.414 89.7836 158.148 89.1722C158.841 88.4792 159.738 88.1327 160.838 88.1327C161.817 88.1327 162.713 88.3365 163.529 88.7442C164.344 89.111 165.017 89.6002 165.547 90.2117C165.995 90.7824 166.403 91.5365 166.769 92.4741C167.136 93.4117 167.422 94.3085 167.626 95.1645L168.115 98.0384C169.093 105.009 169.582 111.185 169.582 116.566V116.749C169.582 118.787 169.541 120.663 169.46 122.375C169.378 124.413 169.154 126.553 168.787 128.795C168.624 129.896 168.38 130.854 168.054 131.669C167.768 132.484 167.381 133.3 166.892 134.115C166.036 135.582 164.833 136.316 163.284 136.316ZM163.406 134.604C164.059 134.604 164.65 134.237 165.18 133.503C165.71 132.729 166.117 131.669 166.403 130.324C167.055 127.47 167.462 124.678 167.626 121.947C167.707 119.745 167.748 117.605 167.748 115.526V115.282L167.687 109.167C167.605 106.966 167.361 104.112 166.953 100.607C166.627 98.12 165.954 95.5722 164.935 92.9633C164.527 91.9442 163.977 91.1492 163.284 90.5785C162.632 90.0078 161.919 89.7225 161.144 89.7225C160.451 89.7225 159.84 90.0486 159.31 90.7008C158.78 91.3531 158.352 92.2703 158.026 93.4524C157.292 96.1836 156.884 98.711 156.803 101.035C156.68 103.032 156.619 105.091 156.619 107.21V110.207C156.619 112.938 156.884 116.403 157.414 120.601C157.74 123.251 158.148 125.554 158.637 127.511C159.126 129.468 159.778 131.119 160.594 132.464C161.409 133.891 162.347 134.604 163.406 134.604Z" fill="black"/>
</svg>
